<?xml version="1.0" encoding="utf-8"?>
<!-- Generator: Adobe Illustrator 22.0.0, SVG Export Plug-In . SVG Version: 6.00 Build 0)  -->
<svg version="1.1" id="Layer_1" xmlns="http://www.w3.org/2000/svg" xmlns:xlink="http://www.w3.org/1999/xlink" x="0px" y="0px"
	 viewBox="0 0 16 14" style="enable-background:new 0 0 16 14;" xml:space="preserve">
<path d="M3.2,8.3"/>
<path d="M4.6,8.3c0,0,2.6,4.4,6.9,0c0,0,7.3,5,0,5s-7.3,0-7.3,0S-2.6,13.3,4.6,8.3z"/>
<path d="M11.2,4.8C11.2,7.1,9.8,9,8,9S4.8,7.1,4.8,4.8c0-1,0.3-1.9,0.7-2.6C6.1,1.3,7,0.7,8,0.7c1,0,1.9,0.6,2.5,1.5
	C10.9,2.9,11.2,3.8,11.2,4.8z"/>
</svg>
